<mxfile host="Electron" agent="Mozilla/5.0 (Windows NT 10.0; Win64; x64) AppleWebKit/537.36 (KHTML, like Gecko) draw.io/28.2.5 Chrome/138.0.7204.251 Electron/37.6.1 Safari/537.36" version="28.2.5">
  <diagram name="PÃ¡gina-1" id="DcRKRYDErjrqbRtrb9L5">
    <mxGraphModel dx="1224" dy="1233" grid="1" gridSize="10" guides="1" tooltips="1" connect="1" arrows="1" fold="1" page="1" pageScale="1" pageWidth="1920" pageHeight="1200" math="0" shadow="0">
      <root>
        <mxCell id="0" />
        <mxCell id="1" parent="0" />
        <mxCell id="kCsg7uslASJ1l6PE4DJw-33" value="" style="rounded=1;whiteSpace=wrap;html=1;arcSize=10;fillColor=none;dashed=1;" parent="1" vertex="1">
          <mxGeometry x="850" y="140" width="740" height="680" as="geometry" />
        </mxCell>
        <mxCell id="kCsg7uslASJ1l6PE4DJw-31" value="" style="rounded=1;whiteSpace=wrap;html=1;arcSize=10;fillColor=none;dashed=1;" parent="1" vertex="1">
          <mxGeometry x="50" y="140" width="740" height="680" as="geometry" />
        </mxCell>
        <mxCell id="kCsg7uslASJ1l6PE4DJw-1" value="&lt;b&gt;&lt;font style=&quot;font-size: 36px;&quot;&gt;Integration Model&lt;/font&gt;&lt;/b&gt; (how tables are related)" style="text;html=1;align=left;verticalAlign=middle;whiteSpace=wrap;rounded=0;" parent="1" vertex="1">
          <mxGeometry x="50" y="30" width="540" height="60" as="geometry" />
        </mxCell>
        <mxCell id="kCsg7uslASJ1l6PE4DJw-2" value="crm_cust_info" style="swimlane;fontStyle=0;childLayout=stackLayout;horizontal=1;startSize=30;horizontalStack=0;resizeParent=1;resizeParentMax=0;resizeLast=0;collapsible=1;marginBottom=0;whiteSpace=wrap;html=1;fillColor=#6a00ff;strokeColor=#3700CC;rounded=1;fontSize=26;fontColor=#ffffff;" parent="1" vertex="1">
          <mxGeometry x="490" y="510" width="250" height="140" as="geometry">
            <mxRectangle x="360" y="300" width="60" height="30" as="alternateBounds" />
          </mxGeometry>
        </mxCell>
        <mxCell id="kCsg7uslASJ1l6PE4DJw-3" value="cst_id" style="text;strokeColor=none;fillColor=none;align=left;verticalAlign=middle;spacingLeft=4;spacingRight=4;overflow=hidden;points=[[0,0.5],[1,0.5]];portConstraint=eastwest;rotatable=0;whiteSpace=wrap;html=1;fontSize=26;" parent="kCsg7uslASJ1l6PE4DJw-2" vertex="1">
          <mxGeometry y="30" width="250" height="40" as="geometry" />
        </mxCell>
        <mxCell id="kCsg7uslASJ1l6PE4DJw-21" value="cst_key" style="text;strokeColor=none;fillColor=none;align=left;verticalAlign=middle;spacingLeft=4;spacingRight=4;overflow=hidden;points=[[0,0.5],[1,0.5]];portConstraint=eastwest;rotatable=0;whiteSpace=wrap;html=1;fontSize=26;" parent="kCsg7uslASJ1l6PE4DJw-2" vertex="1">
          <mxGeometry y="70" width="250" height="40" as="geometry" />
        </mxCell>
        <mxCell id="3GlK2siyyf4Q0kPrUe3q-4" value="&lt;font style=&quot;font-size: 20px;&quot;&gt;&lt;b&gt;CUSTOMER&lt;/b&gt;&lt;/font&gt;" style="text;html=1;align=center;verticalAlign=middle;whiteSpace=wrap;overflow=hidden;fillColor=#6d8764;fontColor=#ffffff;strokeColor=#3A5431;rounded=1;" vertex="1" parent="kCsg7uslASJ1l6PE4DJw-2">
          <mxGeometry y="110" width="250" height="30" as="geometry" />
        </mxCell>
        <mxCell id="kCsg7uslASJ1l6PE4DJw-6" value="Customer Information" style="text;html=1;align=center;verticalAlign=middle;resizable=0;points=[];autosize=1;strokeColor=none;fillColor=none;" parent="1" vertex="1">
          <mxGeometry x="490" y="480" width="140" height="30" as="geometry" />
        </mxCell>
        <mxCell id="kCsg7uslASJ1l6PE4DJw-7" value="crm_cust_info" style="swimlane;fontStyle=0;childLayout=stackLayout;horizontal=1;startSize=30;horizontalStack=0;resizeParent=1;resizeParentMax=0;resizeLast=0;collapsible=1;marginBottom=0;whiteSpace=wrap;html=1;fillColor=#0050ef;strokeColor=#001DBC;rounded=1;fontSize=26;fontColor=#ffffff;" parent="1" vertex="1">
          <mxGeometry x="490" y="290" width="250" height="70" as="geometry">
            <mxRectangle x="360" y="300" width="60" height="30" as="alternateBounds" />
          </mxGeometry>
        </mxCell>
        <mxCell id="kCsg7uslASJ1l6PE4DJw-8" value="prd_key" style="text;strokeColor=none;fillColor=none;align=left;verticalAlign=middle;spacingLeft=4;spacingRight=4;overflow=hidden;points=[[0,0.5],[1,0.5]];portConstraint=eastwest;rotatable=0;whiteSpace=wrap;html=1;fontSize=26;" parent="kCsg7uslASJ1l6PE4DJw-7" vertex="1">
          <mxGeometry y="30" width="250" height="40" as="geometry" />
        </mxCell>
        <mxCell id="kCsg7uslASJ1l6PE4DJw-9" value="Current &amp;amp; History Product Information" style="text;html=1;align=center;verticalAlign=middle;resizable=0;points=[];autosize=1;strokeColor=none;fillColor=none;" parent="1" vertex="1">
          <mxGeometry x="490" y="260" width="220" height="30" as="geometry" />
        </mxCell>
        <mxCell id="kCsg7uslASJ1l6PE4DJw-10" value="crm_sales_details" style="swimlane;fontStyle=0;childLayout=stackLayout;horizontal=1;startSize=30;horizontalStack=0;resizeParent=1;resizeParentMax=0;resizeLast=0;collapsible=1;marginBottom=0;whiteSpace=wrap;html=1;fillColor=#60a917;strokeColor=#2D7600;rounded=1;fontSize=26;fontColor=#ffffff;" parent="1" vertex="1">
          <mxGeometry x="80" y="390" width="250" height="110" as="geometry">
            <mxRectangle x="360" y="300" width="60" height="30" as="alternateBounds" />
          </mxGeometry>
        </mxCell>
        <mxCell id="kCsg7uslASJ1l6PE4DJw-11" value="prd_key" style="text;strokeColor=none;fillColor=none;align=left;verticalAlign=middle;spacingLeft=4;spacingRight=4;overflow=hidden;points=[[0,0.5],[1,0.5]];portConstraint=eastwest;rotatable=0;whiteSpace=wrap;html=1;fontSize=26;" parent="kCsg7uslASJ1l6PE4DJw-10" vertex="1">
          <mxGeometry y="30" width="250" height="40" as="geometry" />
        </mxCell>
        <mxCell id="kCsg7uslASJ1l6PE4DJw-14" value="csT_id" style="text;strokeColor=none;fillColor=none;align=left;verticalAlign=middle;spacingLeft=4;spacingRight=4;overflow=hidden;points=[[0,0.5],[1,0.5]];portConstraint=eastwest;rotatable=0;whiteSpace=wrap;html=1;fontSize=26;" parent="kCsg7uslASJ1l6PE4DJw-10" vertex="1">
          <mxGeometry y="70" width="250" height="40" as="geometry" />
        </mxCell>
        <mxCell id="kCsg7uslASJ1l6PE4DJw-12" value="Transactional Records about Sales &amp;amp; Orders" style="text;html=1;align=center;verticalAlign=middle;resizable=0;points=[];autosize=1;strokeColor=none;fillColor=none;" parent="1" vertex="1">
          <mxGeometry x="80" y="360" width="260" height="30" as="geometry" />
        </mxCell>
        <mxCell id="kCsg7uslASJ1l6PE4DJw-16" style="edgeStyle=orthogonalEdgeStyle;rounded=0;orthogonalLoop=1;jettySize=auto;html=1;" parent="1" source="kCsg7uslASJ1l6PE4DJw-11" target="kCsg7uslASJ1l6PE4DJw-8" edge="1">
          <mxGeometry relative="1" as="geometry" />
        </mxCell>
        <mxCell id="kCsg7uslASJ1l6PE4DJw-17" style="edgeStyle=orthogonalEdgeStyle;rounded=0;orthogonalLoop=1;jettySize=auto;html=1;exitX=1;exitY=0.5;exitDx=0;exitDy=0;" parent="1" source="kCsg7uslASJ1l6PE4DJw-14" target="kCsg7uslASJ1l6PE4DJw-3" edge="1">
          <mxGeometry relative="1" as="geometry" />
        </mxCell>
        <mxCell id="kCsg7uslASJ1l6PE4DJw-18" value="erp_cust_az12" style="swimlane;fontStyle=0;childLayout=stackLayout;horizontal=1;startSize=30;horizontalStack=0;resizeParent=1;resizeParentMax=0;resizeLast=0;collapsible=1;marginBottom=0;whiteSpace=wrap;html=1;fillColor=#f0a30a;strokeColor=#BD7000;rounded=1;fontSize=26;fontColor=#000000;" parent="1" vertex="1">
          <mxGeometry x="1120" y="550" width="250" height="70" as="geometry">
            <mxRectangle x="360" y="300" width="60" height="30" as="alternateBounds" />
          </mxGeometry>
        </mxCell>
        <mxCell id="kCsg7uslASJ1l6PE4DJw-19" value="cid" style="text;strokeColor=none;fillColor=none;align=left;verticalAlign=middle;spacingLeft=4;spacingRight=4;overflow=hidden;points=[[0,0.5],[1,0.5]];portConstraint=eastwest;rotatable=0;whiteSpace=wrap;html=1;fontSize=26;" parent="kCsg7uslASJ1l6PE4DJw-18" vertex="1">
          <mxGeometry y="30" width="250" height="40" as="geometry" />
        </mxCell>
        <mxCell id="kCsg7uslASJ1l6PE4DJw-20" value="Customer Aditional Information (BorthDate)" style="text;html=1;align=center;verticalAlign=middle;resizable=0;points=[];autosize=1;strokeColor=#BD7000;fillColor=#f0a30a;fontColor=#000000;" parent="1" vertex="1">
          <mxGeometry x="1120" y="520" width="250" height="30" as="geometry" />
        </mxCell>
        <mxCell id="kCsg7uslASJ1l6PE4DJw-22" style="edgeStyle=orthogonalEdgeStyle;rounded=0;orthogonalLoop=1;jettySize=auto;html=1;exitX=1;exitY=0.5;exitDx=0;exitDy=0;entryX=0;entryY=0.5;entryDx=0;entryDy=0;" parent="1" source="kCsg7uslASJ1l6PE4DJw-21" target="kCsg7uslASJ1l6PE4DJw-19" edge="1">
          <mxGeometry relative="1" as="geometry" />
        </mxCell>
        <mxCell id="kCsg7uslASJ1l6PE4DJw-23" value="erp_loc_a101" style="swimlane;fontStyle=0;childLayout=stackLayout;horizontal=1;startSize=30;horizontalStack=0;resizeParent=1;resizeParentMax=0;resizeLast=0;collapsible=1;marginBottom=0;whiteSpace=wrap;html=1;fillColor=#f0a30a;strokeColor=#BD7000;rounded=1;fontSize=26;fontColor=#000000;" parent="1" vertex="1">
          <mxGeometry x="1120" y="700" width="250" height="70" as="geometry">
            <mxRectangle x="360" y="300" width="60" height="30" as="alternateBounds" />
          </mxGeometry>
        </mxCell>
        <mxCell id="kCsg7uslASJ1l6PE4DJw-24" value="cid" style="text;strokeColor=none;fillColor=none;align=left;verticalAlign=middle;spacingLeft=4;spacingRight=4;overflow=hidden;points=[[0,0.5],[1,0.5]];portConstraint=eastwest;rotatable=0;whiteSpace=wrap;html=1;fontSize=26;" parent="kCsg7uslASJ1l6PE4DJw-23" vertex="1">
          <mxGeometry y="30" width="250" height="40" as="geometry" />
        </mxCell>
        <mxCell id="kCsg7uslASJ1l6PE4DJw-25" value="Location Of Customers (Country)" style="text;html=1;align=center;verticalAlign=middle;resizable=0;points=[];autosize=1;strokeColor=#BD7000;fillColor=#f0a30a;fontColor=#000000;" parent="1" vertex="1">
          <mxGeometry x="1120" y="670" width="200" height="30" as="geometry" />
        </mxCell>
        <mxCell id="kCsg7uslASJ1l6PE4DJw-26" style="edgeStyle=orthogonalEdgeStyle;rounded=0;orthogonalLoop=1;jettySize=auto;html=1;entryX=0;entryY=0.5;entryDx=0;entryDy=0;" parent="1" source="kCsg7uslASJ1l6PE4DJw-21" target="kCsg7uslASJ1l6PE4DJw-24" edge="1">
          <mxGeometry relative="1" as="geometry" />
        </mxCell>
        <mxCell id="kCsg7uslASJ1l6PE4DJw-27" value="erp_px_cat_g1v2" style="swimlane;fontStyle=0;childLayout=stackLayout;horizontal=1;startSize=30;horizontalStack=0;resizeParent=1;resizeParentMax=0;resizeLast=0;collapsible=1;marginBottom=0;whiteSpace=wrap;html=1;fillColor=#f0a30a;strokeColor=#BD7000;rounded=1;fontSize=26;fontColor=#000000;" parent="1" vertex="1">
          <mxGeometry x="1120" y="290" width="250" height="100" as="geometry">
            <mxRectangle x="360" y="300" width="60" height="30" as="alternateBounds" />
          </mxGeometry>
        </mxCell>
        <mxCell id="kCsg7uslASJ1l6PE4DJw-28" value="id" style="text;strokeColor=none;fillColor=none;align=left;verticalAlign=middle;spacingLeft=4;spacingRight=4;overflow=hidden;points=[[0,0.5],[1,0.5]];portConstraint=eastwest;rotatable=0;whiteSpace=wrap;html=1;fontSize=26;" parent="kCsg7uslASJ1l6PE4DJw-27" vertex="1">
          <mxGeometry y="30" width="250" height="40" as="geometry" />
        </mxCell>
        <mxCell id="3GlK2siyyf4Q0kPrUe3q-3" value="&lt;font style=&quot;font-size: 20px;&quot;&gt;&lt;b&gt;PRODUCT&lt;/b&gt;&lt;/font&gt;" style="text;html=1;align=center;verticalAlign=middle;whiteSpace=wrap;overflow=hidden;fillColor=#e51400;fontColor=#ffffff;strokeColor=#B20000;rounded=1;" vertex="1" parent="kCsg7uslASJ1l6PE4DJw-27">
          <mxGeometry y="70" width="250" height="30" as="geometry" />
        </mxCell>
        <mxCell id="kCsg7uslASJ1l6PE4DJw-29" value="Product Category And Maintenance" style="text;html=1;align=center;verticalAlign=middle;resizable=0;points=[];autosize=1;strokeColor=#BD7000;fillColor=#f0a30a;fontColor=#000000;" parent="1" vertex="1">
          <mxGeometry x="1140" y="260" width="210" height="30" as="geometry" />
        </mxCell>
        <mxCell id="kCsg7uslASJ1l6PE4DJw-30" style="edgeStyle=orthogonalEdgeStyle;rounded=0;orthogonalLoop=1;jettySize=auto;html=1;" parent="1" source="kCsg7uslASJ1l6PE4DJw-8" target="kCsg7uslASJ1l6PE4DJw-28" edge="1">
          <mxGeometry relative="1" as="geometry" />
        </mxCell>
        <mxCell id="kCsg7uslASJ1l6PE4DJw-32" value="&lt;font style=&quot;font-size: 20px;&quot;&gt;CRM&lt;/font&gt;" style="rounded=1;whiteSpace=wrap;html=1;fillColor=#647687;fontColor=#ffffff;strokeColor=#314354;" parent="1" vertex="1">
          <mxGeometry x="350" y="105" width="120" height="60" as="geometry" />
        </mxCell>
        <mxCell id="kCsg7uslASJ1l6PE4DJw-34" value="&lt;font style=&quot;font-size: 20px;&quot;&gt;ERP&lt;/font&gt;" style="rounded=1;whiteSpace=wrap;html=1;fillColor=#76608a;fontColor=#ffffff;strokeColor=#432D57;" parent="1" vertex="1">
          <mxGeometry x="1150" y="105" width="120" height="60" as="geometry" />
        </mxCell>
        <mxCell id="3GlK2siyyf4Q0kPrUe3q-1" value="&lt;font style=&quot;font-size: 20px;&quot;&gt;&lt;b&gt;PRODUCT&lt;/b&gt;&lt;/font&gt;" style="text;html=1;align=center;verticalAlign=middle;whiteSpace=wrap;overflow=hidden;fillColor=#e51400;fontColor=#ffffff;strokeColor=#B20000;rounded=1;" vertex="1" parent="1">
          <mxGeometry x="490" y="360" width="250" height="30" as="geometry" />
        </mxCell>
        <mxCell id="3GlK2siyyf4Q0kPrUe3q-5" value="&lt;font style=&quot;font-size: 20px;&quot;&gt;&lt;b&gt;CUSTOMER&lt;/b&gt;&lt;/font&gt;" style="text;html=1;align=center;verticalAlign=middle;whiteSpace=wrap;overflow=hidden;fillColor=#6d8764;fontColor=#ffffff;strokeColor=#3A5431;rounded=1;" vertex="1" parent="1">
          <mxGeometry x="1120" y="620" width="250" height="30" as="geometry" />
        </mxCell>
        <mxCell id="3GlK2siyyf4Q0kPrUe3q-6" value="&lt;font style=&quot;font-size: 20px;&quot;&gt;&lt;b&gt;CUSTOMER&lt;/b&gt;&lt;/font&gt;" style="text;html=1;align=center;verticalAlign=middle;whiteSpace=wrap;overflow=hidden;fillColor=#6d8764;fontColor=#ffffff;strokeColor=#3A5431;rounded=1;" vertex="1" parent="1">
          <mxGeometry x="1120" y="770" width="250" height="30" as="geometry" />
        </mxCell>
        <mxCell id="3GlK2siyyf4Q0kPrUe3q-7" value="&lt;font style=&quot;font-size: 20px;&quot;&gt;&lt;b&gt;SALES&lt;/b&gt;&lt;/font&gt;" style="text;html=1;align=center;verticalAlign=middle;whiteSpace=wrap;overflow=hidden;fillColor=#76608a;fontColor=#ffffff;strokeColor=#432D57;rounded=1;" vertex="1" parent="1">
          <mxGeometry x="80" y="500" width="250" height="30" as="geometry" />
        </mxCell>
      </root>
    </mxGraphModel>
  </diagram>
</mxfile>
